<?xml version="1.0" standalone="no"?>
<!DOCTYPE svg PUBLIC "-//W3C//DTD SVG 20010904//EN"
 "http://www.w3.org/TR/2001/REC-SVG-20010904/DTD/svg10.dtd">
<svg version="1.0" xmlns="http://www.w3.org/2000/svg"
 width="16.000000pt" height="16.000000pt" viewBox="0 0 16.000000 16.000000"
 preserveAspectRatio="xMidYMid meet">

<g transform="translate(0.000000,16.000000) scale(0.100000,-0.100000)"
fill="#000000" stroke="none">
<path d="M4 147 c-3 -8 -4 -43 -2 -78 l3 -64 75 0 c74 0 75 0 78 28 3 23 0 27
-23 27 -14 0 -28 -7 -31 -15 -4 -10 -20 -15 -48 -15 l-43 0 -2 50 -1 50 39 0
c39 0 63 -16 44 -29 -6 -3 -7 -15 -2 -26 6 -17 8 -17 8 -2 1 12 9 17 32 17 28
0 30 2 27 33 l-3 32 -73 3 c-55 2 -74 -1 -78 -11z"/>
</g>
</svg>
